<svg width="40" height="40" viewBox="0 0 40 40" fill="none" xmlns="http://www.w3.org/2000/svg">
<path d="M35.8073 28.299L23.4528 6.90034C22.7658 5.71046 21.5354 5 20.1613 5C18.7872 5 17.5567 5.71046 16.8697 6.90034L4.51528 28.2989C3.82824 29.4889 3.82824 30.9097 4.51528 32.0996C5.20232 33.2896 6.43273 34 7.80681 34H32.5157C33.8897 34 35.1202 33.2895 35.8073 32.0997C36.4944 30.9097 36.4944 29.4889 35.8073 28.299ZM34.1673 31.1529C33.8226 31.75 33.2052 32.1064 32.5157 32.1064H7.80681C7.11731 32.1064 6.4999 31.75 6.15521 31.1529C5.81052 30.5558 5.81052 29.8429 6.15521 29.2459L18.5098 7.84722C18.8545 7.25014 19.4719 6.89371 20.1613 6.89371C20.8507 6.89371 21.4682 7.25014 21.8129 7.84722L34.1674 29.2459C34.512 29.8429 34.512 30.5558 34.1673 31.1529Z" fill="#FF60A2"/>
<path d="M21.108 14.4502H19.2144V23.9185H21.108V14.4502Z" fill="#FF60A2"/>
<path d="M20.1612 25.8125C19.4651 25.8125 18.8988 26.3788 18.8988 27.075C18.8988 27.7711 19.4651 28.3374 20.1612 28.3374C20.8573 28.3374 21.4237 27.7711 21.4237 27.075C21.4237 26.3788 20.8574 25.8125 20.1612 25.8125Z" fill="#FF60A2"/>
</svg>
