<svg width="40" height="40" viewBox="0 0 40 40" fill="none" xmlns="http://www.w3.org/2000/svg">
<path d="M32.3491 9.92364L26.5309 4.10546C26.4969 4.07176 26.4566 4.04509 26.4123 4.027C26.368 4.0089 26.3206 3.99973 26.2727 4.00001H10.2727C10.1763 4.00001 10.0838 4.03832 10.0156 4.10651C9.9474 4.17471 9.90909 4.2672 9.90909 4.36364V6.9091H7.36364C7.26719 6.9091 7.1747 6.94741 7.10651 7.0156C7.03831 7.0838 7 7.17629 7 7.27273V35.6364C7 35.7328 7.03831 35.8253 7.10651 35.8935C7.1747 35.9617 7.26719 36 7.36364 36H29.1818C29.2783 36 29.3708 35.9617 29.4389 35.8935C29.5071 35.8253 29.5455 35.7328 29.5455 35.6364V33.0909H32.0909C32.1873 33.0909 32.2798 33.0526 32.348 32.9844C32.4162 32.9162 32.4545 32.8237 32.4545 32.7273V10.1818C32.4548 10.134 32.4456 10.0865 32.4276 10.0422C32.4095 9.99792 32.3828 9.95762 32.3491 9.92364ZM26.6364 5.24001L31.2145 9.81819H26.6364V5.24001ZM28.8182 35.2727H7.72727V7.63637H9.90909V32.7273C9.90909 32.8237 9.9474 32.9162 10.0156 32.9844C10.0838 33.0526 10.1763 33.0909 10.2727 33.0909H28.8182V35.2727ZM10.6364 32.3636V4.72728H25.9091V10.1818C25.9091 10.2783 25.9474 10.3708 26.0156 10.439C26.0838 10.5071 26.1763 10.5455 26.2727 10.5455H31.7273V32.3636H10.6364Z" fill="white"/>
<path d="M17.9091 17.8182C16.6553 17.8182 15.4529 17.3201 14.5664 16.4336C13.6799 15.5471 13.1818 14.3447 13.1818 13.0909C13.1818 11.8372 13.6799 10.6348 14.5664 9.74823C15.4529 8.8617 16.6553 8.36365 17.9091 8.36365C18.0055 8.36365 18.098 8.40196 18.1662 8.47015C18.2344 8.53835 18.2727 8.63084 18.2727 8.72728V12.7273H22.2727C22.3692 12.7273 22.4617 12.7656 22.5299 12.8338C22.5981 12.902 22.6364 12.9945 22.6364 13.0909C22.6364 13.7117 22.5141 14.3264 22.2765 14.9C22.039 15.4735 21.6907 15.9946 21.2518 16.4336C20.8128 16.8726 20.2917 17.2208 19.7181 17.4583C19.1446 17.6959 18.5299 17.8182 17.9091 17.8182ZM17.5455 9.09092C16.7903 9.16335 16.0714 9.449 15.4725 9.91456C14.8736 10.3801 14.4194 11.0064 14.1629 11.7203C13.9064 12.4342 13.8583 13.2063 14.024 13.9466C14.1897 14.6868 14.5625 15.3647 15.0989 15.9011C15.6353 16.4375 16.3132 16.8103 17.0535 16.976C17.7937 17.1417 18.5658 17.0936 19.2797 16.8371C19.9936 16.5806 20.6199 16.1264 21.0855 15.5275C21.551 14.9286 21.8367 14.2097 21.9091 13.4546H17.9091C17.8127 13.4546 17.7202 13.4162 17.652 13.348C17.5838 13.2799 17.5455 13.1874 17.5455 13.0909V9.09092Z" fill="white"/>
<path d="M23.7273 12H19.3636C19.2672 12 19.1747 11.9617 19.1065 11.8935C19.0383 11.8253 19 11.7328 19 11.6363V7.27269C19 7.17625 19.0383 7.08376 19.1065 7.01556C19.1747 6.94737 19.2672 6.90906 19.3636 6.90906C19.9844 6.90906 20.5991 7.03133 21.1727 7.2689C21.7462 7.50647 22.2674 7.85468 22.7063 8.29364C23.1453 8.73261 23.4935 9.25374 23.7311 9.82728C23.9686 10.4008 24.0909 11.0155 24.0909 11.6363C24.0909 11.7328 24.0526 11.8253 23.9844 11.8935C23.9162 11.9617 23.8237 12 23.7273 12ZM19.7273 11.2727H23.3636C23.2817 10.3358 22.8723 9.45772 22.2073 8.7927C21.5423 8.12768 20.6642 7.71825 19.7273 7.63633V11.2727Z" fill="white"/>
<path d="M25.9091 21.0909H16.8182C16.7218 21.0909 16.6293 21.0526 16.5611 20.9844C16.4929 20.9162 16.4546 20.8237 16.4546 20.7273C16.4546 20.6308 16.4929 20.5383 16.5611 20.4702C16.6293 20.402 16.7218 20.3636 16.8182 20.3636H25.9091C26.0055 20.3636 26.098 20.402 26.1662 20.4702C26.2344 20.5383 26.2727 20.6308 26.2727 20.7273C26.2727 20.8237 26.2344 20.9162 26.1662 20.9844C26.098 21.0526 26.0055 21.0909 25.9091 21.0909Z" fill="white"/>
<path d="M29.9091 16.3636H26.2727C26.1763 16.3636 26.0838 16.3253 26.0156 16.2571C25.9474 16.1889 25.9091 16.0964 25.9091 16C25.9091 15.9035 25.9474 15.8111 26.0156 15.7429C26.0838 15.6747 26.1763 15.6364 26.2727 15.6364H29.9091C30.0055 15.6364 30.098 15.6747 30.1662 15.7429C30.2344 15.8111 30.2727 15.9035 30.2727 16C30.2727 16.0964 30.2344 16.1889 30.1662 16.2571C30.098 16.3253 30.0055 16.3636 29.9091 16.3636Z" fill="white"/>
<path d="M29.9091 14.5455H26.2727C26.1763 14.5455 26.0838 14.5072 26.0156 14.439C25.9474 14.3708 25.9091 14.2783 25.9091 14.1819C25.9091 14.0854 25.9474 13.9929 26.0156 13.9247C26.0838 13.8565 26.1763 13.8182 26.2727 13.8182H29.9091C30.0055 13.8182 30.098 13.8565 30.1662 13.9247C30.2344 13.9929 30.2727 14.0854 30.2727 14.1819C30.2727 14.2783 30.2344 14.3708 30.1662 14.439C30.098 14.5072 30.0055 14.5455 29.9091 14.5455Z" fill="white"/>
<path d="M29.5455 23.2727H12.8182C12.7218 23.2727 12.6293 23.2344 12.5611 23.1662C12.4929 23.098 12.4546 23.0055 12.4546 22.909C12.4546 22.8126 12.4929 22.7201 12.5611 22.6519C12.6293 22.5837 12.7218 22.5454 12.8182 22.5454H29.5455C29.6419 22.5454 29.7344 22.5837 29.8026 22.6519C29.8708 22.7201 29.9091 22.8126 29.9091 22.909C29.9091 23.0055 29.8708 23.098 29.8026 23.1662C29.7344 23.2344 29.6419 23.2727 29.5455 23.2727Z" fill="white"/>
<path d="M29.5455 25.4546H12.8182C12.7218 25.4546 12.6293 25.4163 12.5611 25.3481C12.4929 25.2799 12.4546 25.1874 12.4546 25.0909C12.4546 24.9945 12.4929 24.902 12.5611 24.8338C12.6293 24.7656 12.7218 24.7273 12.8182 24.7273H29.5455C29.6419 24.7273 29.7344 24.7656 29.8026 24.8338C29.8708 24.902 29.9091 24.9945 29.9091 25.0909C29.9091 25.1874 29.8708 25.2799 29.8026 25.3481C29.7344 25.4163 29.6419 25.4546 29.5455 25.4546Z" fill="white"/>
<path d="M29.5455 27.6363H12.8182C12.7218 27.6363 12.6293 27.598 12.5611 27.5298C12.4929 27.4616 12.4546 27.3691 12.4546 27.2727C12.4546 27.1763 12.4929 27.0838 12.5611 27.0156C12.6293 26.9474 12.7218 26.9091 12.8182 26.9091H29.5455C29.6419 26.9091 29.7344 26.9474 29.8026 27.0156C29.8708 27.0838 29.9091 27.1763 29.9091 27.2727C29.9091 27.3691 29.8708 27.4616 29.8026 27.5298C29.7344 27.598 29.6419 27.6363 29.5455 27.6363Z" fill="white"/>
<path d="M24.8182 29.8182H12.8182C12.7218 29.8182 12.6293 29.7799 12.5611 29.7117C12.4929 29.6435 12.4546 29.551 12.4546 29.4546C12.4546 29.3581 12.4929 29.2656 12.5611 29.1974C12.6293 29.1293 12.7218 29.0909 12.8182 29.0909H24.8182C24.9146 29.0909 25.0071 29.1293 25.0753 29.1974C25.1435 29.2656 25.1818 29.3581 25.1818 29.4546C25.1818 29.551 25.1435 29.6435 25.0753 29.7117C25.0071 29.7799 24.9146 29.8182 24.8182 29.8182Z" fill="white"/>
<path d="M24.8182 14.5455C25.019 14.5455 25.1818 14.3827 25.1818 14.1819C25.1818 13.981 25.019 13.8182 24.8182 13.8182C24.6173 13.8182 24.4545 13.981 24.4545 14.1819C24.4545 14.3827 24.6173 14.5455 24.8182 14.5455Z" fill="white"/>
<path d="M24.8182 16.3636C25.019 16.3636 25.1818 16.2008 25.1818 16C25.1818 15.7992 25.019 15.6364 24.8182 15.6364C24.6173 15.6364 24.4545 15.7992 24.4545 16C24.4545 16.2008 24.6173 16.3636 24.8182 16.3636Z" fill="white"/>
</svg>
