<svg width="243" height="243" viewBox="0 0 243 243" fill="none" xmlns="http://www.w3.org/2000/svg">
<mask id="path-1-inside-1_292_508" fill="white">
<path d="M183.464 16.988C198.848 26.1095 212.03 38.515 222.066 53.3189C232.103 68.1228 238.747 84.96 241.525 102.628C244.303 120.297 243.146 138.361 238.137 155.53C233.128 172.7 224.389 188.552 212.546 201.954L121.5 121.5L183.464 16.988Z"/>
</mask>
<path d="M183.464 16.988C198.848 26.1095 212.03 38.515 222.066 53.3189C232.103 68.1228 238.747 84.96 241.525 102.628C244.303 120.297 243.146 138.361 238.137 155.53C233.128 172.7 224.389 188.552 212.546 201.954L121.5 121.5L183.464 16.988Z" fill="#7B4DFF" stroke="white" stroke-width="2" mask="url(#path-1-inside-1_292_508)"/>
<mask id="path-2-inside-2_292_508" fill="white">
<path d="M213.3 201.093C198.158 218.557 178.349 231.34 156.197 237.941C134.045 244.541 110.469 244.686 88.2381 238.358C66.0066 232.031 46.0415 219.493 30.6859 202.216C15.3303 184.939 5.22153 163.641 1.54596 140.82C-2.1296 118 0.780593 94.6048 9.93498 73.3804C19.0894 52.156 34.1081 33.9833 53.2284 20.9951C72.3487 8.00695 94.7771 0.742332 117.881 0.053901C140.985 -0.63453 163.807 5.28179 183.666 17.1085L121.5 121.5L213.3 201.093Z"/>
</mask>
<path d="M213.3 201.093C198.158 218.557 178.349 231.34 156.197 237.941C134.045 244.541 110.469 244.686 88.2381 238.358C66.0066 232.031 46.0415 219.493 30.6859 202.216C15.3303 184.939 5.22153 163.641 1.54596 140.82C-2.1296 118 0.780593 94.6048 9.93498 73.3804C19.0894 52.156 34.1081 33.9833 53.2284 20.9951C72.3487 8.00695 94.7771 0.742332 117.881 0.053901C140.985 -0.63453 163.807 5.28179 183.666 17.1085L121.5 121.5L213.3 201.093Z" fill="#0EC3AD" stroke="white" stroke-width="2" mask="url(#path-2-inside-2_292_508)"/>
<path d="M60.98 126.16C60.1267 126.16 59.3267 125.987 58.58 125.64C57.8333 125.293 57.22 124.753 56.74 124.02C56.2733 123.273 56.04 122.347 56.04 121.24C56.04 120.133 56.2467 119.12 56.66 118.2C57.0867 117.28 57.7067 116.227 58.52 115.04L60.56 112H62.62L58.36 118.36L58.42 118.38L58.74 118.06C59.4733 117.327 60.38 116.96 61.46 116.96C62.2867 116.96 63.0267 117.153 63.68 117.54C64.3333 117.913 64.8467 118.447 65.22 119.14C65.5933 119.82 65.78 120.607 65.78 121.5C65.78 122.487 65.56 123.333 65.12 124.04C64.6933 124.733 64.1133 125.26 63.38 125.62C62.66 125.98 61.86 126.16 60.98 126.16ZM60.88 124.46C61.4933 124.46 62.02 124.327 62.46 124.06C62.9 123.78 63.2267 123.413 63.44 122.96C63.6667 122.507 63.78 122.027 63.78 121.52C63.78 121.013 63.6667 120.533 63.44 120.08C63.2133 119.613 62.88 119.24 62.44 118.96C62 118.667 61.4733 118.52 60.86 118.52C59.98 118.52 59.2867 118.813 58.78 119.4C58.2867 119.973 58.04 120.673 58.04 121.5C58.04 122.313 58.2933 123.013 58.8 123.6C59.3067 124.173 60 124.46 60.88 124.46ZM68.9969 125.76L74.3569 114.06V113.9H67.2969V112H76.3769V114.08L71.1369 126H68.9969V125.76ZM80.5094 117.58C79.6027 117.58 78.9227 117.293 78.4694 116.72C78.0294 116.147 77.8094 115.467 77.8094 114.68C77.8094 113.893 78.0294 113.22 78.4694 112.66C78.9094 112.087 79.5894 111.8 80.5094 111.8C81.4294 111.8 82.096 112.08 82.5094 112.64C82.936 113.2 83.1494 113.88 83.1494 114.68C83.1494 115.48 82.936 116.167 82.5094 116.74C82.096 117.3 81.4294 117.58 80.5094 117.58ZM88.0094 112H89.7894L82.5694 126H80.7894L88.0094 112ZM80.5294 116.38C81.0094 116.38 81.3294 116.213 81.4894 115.88C81.6494 115.547 81.7294 115.147 81.7294 114.68C81.7294 113.547 81.3294 112.98 80.5294 112.98C80.0494 112.98 79.7227 113.153 79.5494 113.5C79.3894 113.847 79.3094 114.24 79.3094 114.68C79.3094 115.133 79.396 115.533 79.5694 115.88C79.7427 116.213 80.0627 116.38 80.5294 116.38ZM90.1094 126.2C89.2027 126.2 88.5227 125.913 88.0694 125.34C87.6294 124.767 87.4094 124.087 87.4094 123.3C87.4094 122.527 87.6294 121.853 88.0694 121.28C88.5094 120.707 89.1894 120.42 90.1094 120.42C91.016 120.42 91.6827 120.707 92.1094 121.28C92.536 121.84 92.7494 122.513 92.7494 123.3C92.7494 124.087 92.536 124.767 92.1094 125.34C91.6827 125.913 91.016 126.2 90.1094 126.2ZM90.1294 125C90.6094 125 90.9294 124.84 91.0894 124.52C91.2494 124.187 91.3294 123.78 91.3294 123.3C91.3294 122.833 91.2494 122.433 91.0894 122.1C90.9427 121.767 90.6227 121.6 90.1294 121.6C89.6627 121.6 89.3427 121.773 89.1694 122.12C89.0094 122.453 88.9294 122.847 88.9294 123.3C88.9294 124.433 89.3294 125 90.1294 125Z" fill="white"/>
<path d="M176.04 126.16C174.547 126.16 173.387 125.8 172.56 125.08C171.747 124.36 171.253 123.46 171.08 122.38H173.18C173.353 122.967 173.673 123.44 174.14 123.8C174.62 124.147 175.247 124.32 176.02 124.32C176.927 124.32 177.613 124.093 178.08 123.64C178.547 123.187 178.78 122.607 178.78 121.9C178.78 121.14 178.513 120.56 177.98 120.16C177.46 119.747 176.807 119.54 176.02 119.54H174.72V117.92H175.98C176.713 117.92 177.327 117.74 177.82 117.38C178.327 117.02 178.58 116.467 178.58 115.72C178.58 115.013 178.34 114.453 177.86 114.04C177.393 113.627 176.767 113.42 175.98 113.42C175.247 113.42 174.66 113.6 174.22 113.96C173.793 114.307 173.52 114.767 173.4 115.34H171.38C171.54 114.327 171.987 113.46 172.72 112.74C173.453 112.02 174.547 111.66 176 111.66C177.053 111.66 177.927 111.853 178.62 112.24C179.313 112.627 179.82 113.127 180.14 113.74C180.473 114.34 180.64 114.973 180.64 115.64C180.64 116.347 180.48 116.927 180.16 117.38C179.84 117.833 179.493 118.167 179.12 118.38C178.747 118.593 178.5 118.7 178.38 118.7V118.82C178.553 118.847 178.827 118.96 179.2 119.16C179.587 119.347 179.947 119.68 180.28 120.16C180.627 120.64 180.8 121.28 180.8 122.08C180.8 122.813 180.627 123.493 180.28 124.12C179.933 124.733 179.4 125.227 178.68 125.6C177.973 125.973 177.093 126.16 176.04 126.16ZM187.856 126.16C186.363 126.16 185.203 125.8 184.376 125.08C183.563 124.36 183.07 123.46 182.896 122.38H184.996C185.17 122.967 185.49 123.44 185.956 123.8C186.436 124.147 187.063 124.32 187.836 124.32C188.743 124.32 189.43 124.093 189.896 123.64C190.363 123.187 190.596 122.607 190.596 121.9C190.596 121.14 190.33 120.56 189.796 120.16C189.276 119.747 188.623 119.54 187.836 119.54H186.536V117.92H187.796C188.53 117.92 189.143 117.74 189.636 117.38C190.143 117.02 190.396 116.467 190.396 115.72C190.396 115.013 190.156 114.453 189.676 114.04C189.21 113.627 188.583 113.42 187.796 113.42C187.063 113.42 186.476 113.6 186.036 113.96C185.61 114.307 185.336 114.767 185.216 115.34H183.196C183.356 114.327 183.803 113.46 184.536 112.74C185.27 112.02 186.363 111.66 187.816 111.66C188.87 111.66 189.743 111.853 190.436 112.24C191.13 112.627 191.636 113.127 191.956 113.74C192.29 114.34 192.456 114.973 192.456 115.64C192.456 116.347 192.296 116.927 191.976 117.38C191.656 117.833 191.31 118.167 190.936 118.38C190.563 118.593 190.316 118.7 190.196 118.7V118.82C190.37 118.847 190.643 118.96 191.016 119.16C191.403 119.347 191.763 119.68 192.096 120.16C192.443 120.64 192.616 121.28 192.616 122.08C192.616 122.813 192.443 123.493 192.096 124.12C191.75 124.733 191.216 125.227 190.496 125.6C189.79 125.973 188.91 126.16 187.856 126.16ZM197.033 117.58C196.126 117.58 195.446 117.293 194.993 116.72C194.553 116.147 194.333 115.467 194.333 114.68C194.333 113.893 194.553 113.22 194.993 112.66C195.433 112.087 196.113 111.8 197.033 111.8C197.953 111.8 198.619 112.08 199.033 112.64C199.459 113.2 199.673 113.88 199.673 114.68C199.673 115.48 199.459 116.167 199.033 116.74C198.619 117.3 197.953 117.58 197.033 117.58ZM204.533 112H206.313L199.093 126H197.313L204.533 112ZM197.053 116.38C197.533 116.38 197.853 116.213 198.013 115.88C198.173 115.547 198.253 115.147 198.253 114.68C198.253 113.547 197.853 112.98 197.053 112.98C196.573 112.98 196.246 113.153 196.073 113.5C195.913 113.847 195.833 114.24 195.833 114.68C195.833 115.133 195.919 115.533 196.093 115.88C196.266 116.213 196.586 116.38 197.053 116.38ZM206.633 126.2C205.726 126.2 205.046 125.913 204.593 125.34C204.153 124.767 203.933 124.087 203.933 123.3C203.933 122.527 204.153 121.853 204.593 121.28C205.033 120.707 205.713 120.42 206.633 120.42C207.539 120.42 208.206 120.707 208.633 121.28C209.059 121.84 209.273 122.513 209.273 123.3C209.273 124.087 209.059 124.767 208.633 125.34C208.206 125.913 207.539 126.2 206.633 126.2ZM206.653 125C207.133 125 207.453 124.84 207.613 124.52C207.773 124.187 207.853 123.78 207.853 123.3C207.853 122.833 207.773 122.433 207.613 122.1C207.466 121.767 207.146 121.6 206.653 121.6C206.186 121.6 205.866 121.773 205.693 122.12C205.533 122.453 205.453 122.847 205.453 123.3C205.453 124.433 205.853 125 206.653 125Z" fill="white"/>
</svg>
