<svg width="40" height="40" viewBox="0 0 40 40" fill="none" xmlns="http://www.w3.org/2000/svg">
<path d="M16.5 4H6.5C5.1215 4 4 5.1215 4 6.5V20.5C4 21.8785 5.1215 23 6.5 23H16.5C17.8785 23 19 21.8785 19 20.5V6.5C19 5.1215 17.8785 4 16.5 4ZM18 20.5C18 21.3271 17.3271 22 16.5 22H6.5C5.67287 22 5 21.3271 5 20.5V6.5C5 5.67294 5.67287 5 6.5 5H16.5C17.3271 5 18 5.67294 18 6.5V20.5Z" fill="white"/>
<path d="M16.5 25H6.5C5.1215 25 4 26.1215 4 27.5V33.5C4 34.8785 5.1215 36 6.5 36H16.5C17.8785 36 19 34.8785 19 33.5V27.5C19 26.1215 17.8785 25 16.5 25ZM18 33.5C18 34.3271 17.3271 35 16.5 35H6.5C5.67287 35 5 34.3271 5 33.5V27.5C5 26.6729 5.67287 26 6.5 26H16.5C17.3271 26 18 26.6729 18 27.5V33.5Z" fill="white"/>
<path d="M36 33.5V19.5C36 18.1215 34.8785 17 33.5 17H23.5C22.1215 17 21 18.1215 21 19.5V33.5C21 34.8785 22.1215 36 23.5 36H33.5C34.8785 36 36 34.8785 36 33.5ZM35 33.5C35 34.3271 34.3271 35 33.5 35H23.5C22.6729 35 22 34.3271 22 33.5V19.5C22 18.6729 22.6729 18 23.5 18H33.5C34.3271 18 35 18.6729 35 19.5V33.5Z" fill="white"/>
<path d="M36 12.5V6.5C36 5.1215 34.8785 4 33.5 4H23.5C22.1215 4 21 5.1215 21 6.5V12.5C21 13.8785 22.1215 15 23.5 15H33.5C34.8785 15 36 13.8785 36 12.5ZM35 12.5C35 13.3271 34.3271 14 33.5 14H23.5C22.6729 14 22 13.3271 22 12.5V6.5C22 5.67294 22.6729 5 23.5 5H33.5C34.3271 5 35 5.67294 35 6.5V12.5Z" fill="white"/>
</svg>
