<svg width="102" height="84" viewBox="0 0 102 84" fill="none" xmlns="http://www.w3.org/2000/svg">
<path d="M100 37.6644L98.5 39.5145C97 41.3646 94 45.0648 91 44.9991C88 44.9335 85 41.1021 82 40.2397C79 39.3772 76 41.4836 73 37.8856C70 34.2876 67 24.9852 64 23.5364C61 22.0875 58 28.4921 55 27.7304C52 26.9686 49 19.0405 46 15.9623C43 12.884 40 14.6555 37 16.8393C34 19.023 31 21.6189 28 23.2265C25 24.8341 22 25.4535 19 22.277C16 19.1006 13 12.1284 10 8.11626C7 4.10412 4 3.05206 2.5 2.52603L1 2" stroke="#CF3131" stroke-width="3"/>
<path d="M24.608 76.864L28.184 73.672C28.504 73.384 28.744 73.176 28.904 73.048C29.944 72.168 30.744 71.448 31.304 70.888C31.88 70.312 32.36 69.704 32.744 69.064C33.128 68.408 33.32 67.72 33.32 67C33.32 66.152 33.064 65.44 32.552 64.864C32.056 64.288 31.296 64 30.272 64C29.04 64 28.2 64.352 27.752 65.056C27.32 65.744 27.104 66.504 27.104 67.336V67.528H24.656C24.656 66.504 24.856 65.56 25.256 64.696C25.672 63.832 26.296 63.144 27.128 62.632C27.976 62.104 29.016 61.84 30.248 61.84C31.448 61.84 32.456 62.08 33.272 62.56C34.088 63.024 34.696 63.64 35.096 64.408C35.496 65.176 35.696 66.008 35.696 66.904C35.696 67.88 35.48 68.784 35.048 69.616C34.616 70.432 34.096 71.144 33.488 71.752C32.896 72.344 32.056 73.112 30.968 74.056L27.944 76.672V76.792H35.864V79H24.608V76.864ZM39.5574 82.096C40.5654 81.664 41.0694 81.016 41.0694 80.152C41.0694 79.72 40.9894 79.448 40.8294 79.336C40.6694 79.24 40.4294 79.192 40.1094 79.192C39.6614 79.176 39.3414 79.04 39.1494 78.784C38.9574 78.528 38.8614 78.232 38.8614 77.896C38.8614 77.432 39.0054 77.056 39.2934 76.768C39.5814 76.464 39.9974 76.312 40.5414 76.312C41.7894 76.312 42.4134 76.984 42.4134 78.328V79.264C42.4134 80.32 42.1494 81.152 41.6214 81.76C41.1094 82.368 40.4214 82.792 39.5574 83.032V82.096ZM46.8744 78.712L53.3064 64.672V64.48H44.8344V62.2H55.7304V64.696L49.4424 79H46.8744V78.712ZM60.6894 68.896C59.6014 68.896 58.7854 68.552 58.2414 67.864C57.7134 67.176 57.4494 66.36 57.4494 65.416C57.4494 64.472 57.7134 63.664 58.2414 62.992C58.7694 62.304 59.5854 61.96 60.6894 61.96C61.7934 61.96 62.5934 62.296 63.0894 62.968C63.6014 63.64 63.8574 64.456 63.8574 65.416C63.8574 66.376 63.6014 67.2 63.0894 67.888C62.5934 68.56 61.7934 68.896 60.6894 68.896ZM69.6894 62.2H71.8254L63.1614 79H61.0254L69.6894 62.2ZM60.7134 67.456C61.2894 67.456 61.6734 67.256 61.8654 66.856C62.0574 66.456 62.1534 65.976 62.1534 65.416C62.1534 64.056 61.6734 63.376 60.7134 63.376C60.1374 63.376 59.7454 63.584 59.5374 64C59.3454 64.416 59.2494 64.888 59.2494 65.416C59.2494 65.96 59.3534 66.44 59.5614 66.856C59.7694 67.256 60.1534 67.456 60.7134 67.456ZM72.2094 79.24C71.1214 79.24 70.3054 78.896 69.7614 78.208C69.2334 77.52 68.9694 76.704 68.9694 75.76C68.9694 74.832 69.2334 74.024 69.7614 73.336C70.2894 72.648 71.1054 72.304 72.2094 72.304C73.2974 72.304 74.0974 72.648 74.6094 73.336C75.1214 74.008 75.3774 74.816 75.3774 75.76C75.3774 76.704 75.1214 77.52 74.6094 78.208C74.0974 78.896 73.2974 79.24 72.2094 79.24ZM72.2334 77.8C72.8094 77.8 73.1934 77.608 73.3854 77.224C73.5774 76.824 73.6734 76.336 73.6734 75.76C73.6734 75.2 73.5774 74.72 73.3854 74.32C73.2094 73.92 72.8254 73.72 72.2334 73.72C71.6734 73.72 71.2894 73.928 71.0814 74.344C70.8894 74.744 70.7934 75.216 70.7934 75.76C70.7934 77.12 71.2734 77.8 72.2334 77.8Z" fill="#CF3131"/>
</svg>
