<svg width="666" height="355" viewBox="0 0 666 355" fill="none" xmlns="http://www.w3.org/2000/svg">
<line x1="44" y1="263.5" x2="635" y2="263.5" stroke="#404040" stroke-dasharray="8 8"/>
<line x1="44" y1="207.5" x2="635" y2="207.5" stroke="#404040" stroke-dasharray="8 8"/>
<line x1="44" y1="151.5" x2="635" y2="151.5" stroke="#404040" stroke-dasharray="8 8"/>
<line x1="44" y1="95.5" x2="635" y2="95.5" stroke="#404040" stroke-dasharray="8 8"/>
<line x1="44" y1="39.5" x2="640" y2="39.5" stroke="#404040" stroke-dasharray="8 8"/>
<path d="M28 320L635 320" stroke="white"/>
<path d="M62 219.757L70.4545 227.889C78.9091 236.021 95.8182 252.285 112.727 251.996C129.636 251.708 146.545 234.868 163.455 231.077C180.364 227.286 197.273 236.544 214.182 220.73C231.091 204.915 248 164.028 264.909 157.66C281.818 151.291 298.727 179.442 315.636 176.094C332.545 172.746 349.455 137.899 366.364 124.369C383.273 110.839 400.182 118.626 417.091 128.224C434 137.822 450.909 149.232 467.818 156.298C484.727 163.364 501.636 166.086 518.545 152.125C535.455 138.163 552.364 107.518 569.273 89.8831C586.182 72.2484 603.091 67.6242 611.545 65.3121L620 63" stroke="#7B4DFF" stroke-width="3"/>
<path d="M79.992 347.064C79.2773 347.064 78.648 346.925 78.104 346.648C77.56 346.371 77.128 346.013 76.808 345.576C76.488 345.128 76.2853 344.643 76.2 344.12H77.576C77.7467 344.696 78.0507 345.123 78.488 345.4C78.9253 345.677 79.4213 345.816 79.976 345.816C80.7547 345.816 81.3573 345.571 81.784 345.08C82.2107 344.579 82.424 343.923 82.424 343.112C82.424 342.248 82.1893 341.597 81.72 341.16C81.2507 340.723 80.664 340.504 79.96 340.504C79.2453 340.504 78.7333 340.664 78.424 340.984C78.1253 341.304 77.9173 341.613 77.8 341.912L76.36 341.816L76.664 335.8H83.032V337.08H77.816L77.624 340.68H77.688C78.232 339.859 79.0853 339.448 80.248 339.448C80.9413 339.448 81.5547 339.597 82.088 339.896C82.632 340.184 83.0533 340.605 83.352 341.16C83.6507 341.704 83.8 342.36 83.8 343.128C83.8 343.875 83.6453 344.547 83.336 345.144C83.0373 345.741 82.6 346.211 82.024 346.552C81.448 346.893 80.7707 347.064 79.992 347.064Z" fill="white"/>
<path d="M25.216 269.768V271H19.536V269.768H21.808V261.448H21.744L19.504 263.56V261.912L21.744 259.8H23.104V269.768H25.216ZM30.7226 271.16C29.3786 271.16 28.3706 270.701 27.6986 269.784C27.0373 268.856 26.7066 267.656 26.7066 266.184V264.52C26.7066 263.048 27.0373 261.859 27.6986 260.952C28.3706 260.035 29.3786 259.576 30.7226 259.576C32.0666 259.576 33.0693 260.035 33.7306 260.952C34.392 261.859 34.7226 263.048 34.7226 264.52V266.184C34.7226 267.656 34.3866 268.856 33.7146 269.784C33.0533 270.701 32.056 271.16 30.7226 271.16ZM30.7226 269.944C31.5333 269.944 32.152 269.624 32.5786 268.984C33.016 268.344 33.2346 267.395 33.2346 266.136V264.584C33.2346 263.325 33.0213 262.381 32.5946 261.752C32.168 261.112 31.544 260.792 30.7226 260.792C29.9013 260.792 29.272 261.112 28.8346 261.752C28.408 262.381 28.1946 263.325 28.1946 264.584V266.136C28.1946 267.395 28.408 268.344 28.8346 268.984C29.272 269.624 29.9013 269.944 30.7226 269.944Z" fill="#404040"/>
<path d="M22.848 156.128C21.696 156.128 20.8 155.851 20.16 155.296C19.5307 154.741 19.1413 154.059 18.992 153.248H20.384C20.5333 153.739 20.8107 154.133 21.216 154.432C21.632 154.731 22.1707 154.88 22.832 154.88C23.6213 154.88 24.2133 154.683 24.608 154.288C25.0133 153.893 25.216 153.397 25.216 152.8C25.216 152.139 24.9867 151.632 24.528 151.28C24.0693 150.928 23.504 150.752 22.832 150.752H21.776V149.648H22.768C23.408 149.648 23.952 149.499 24.4 149.2C24.848 148.901 25.072 148.416 25.072 147.744C25.072 147.125 24.864 146.635 24.448 146.272C24.032 145.909 23.4827 145.728 22.8 145.728C22.16 145.728 21.6533 145.877 21.28 146.176C20.9173 146.475 20.6827 146.864 20.576 147.344H19.232C19.36 146.576 19.7067 145.92 20.272 145.376C20.8373 144.821 21.6853 144.544 22.816 144.544C23.6267 144.544 24.304 144.693 24.848 144.992C25.392 145.291 25.792 145.68 26.048 146.16C26.304 146.629 26.432 147.136 26.432 147.68C26.432 148.256 26.304 148.731 26.048 149.104C25.792 149.467 25.5093 149.739 25.2 149.92C24.9013 150.091 24.6987 150.176 24.592 150.176V150.272C24.7307 150.283 24.9547 150.368 25.264 150.528C25.584 150.688 25.8773 150.965 26.144 151.36C26.4213 151.755 26.56 152.272 26.56 152.912C26.56 153.499 26.4267 154.037 26.16 154.528C25.8933 155.008 25.4773 155.397 24.912 155.696C24.3573 155.984 23.6693 156.128 22.848 156.128ZM32.207 156.16C30.863 156.16 29.855 155.701 29.183 154.784C28.5217 153.856 28.191 152.656 28.191 151.184V149.52C28.191 148.048 28.5217 146.859 29.183 145.952C29.855 145.035 30.863 144.576 32.207 144.576C33.551 144.576 34.5537 145.035 35.215 145.952C35.8763 146.859 36.207 148.048 36.207 149.52V151.184C36.207 152.656 35.871 153.856 35.199 154.784C34.5377 155.701 33.5403 156.16 32.207 156.16ZM32.207 154.944C33.0177 154.944 33.6363 154.624 34.063 153.984C34.5003 153.344 34.719 152.395 34.719 151.136V149.584C34.719 148.325 34.5057 147.381 34.079 146.752C33.6523 146.112 33.0283 145.792 32.207 145.792C31.3857 145.792 30.7563 146.112 30.319 146.752C29.8923 147.381 29.679 148.325 29.679 149.584V151.136C29.679 152.395 29.8923 153.344 30.319 153.984C30.7563 154.624 31.3857 154.944 32.207 154.944Z" fill="#404040"/>
<path d="M19.136 213.8L21.824 211.384L22.112 211.144C22.7947 210.547 23.328 210.056 23.712 209.672C24.1067 209.277 24.432 208.851 24.688 208.392C24.9547 207.933 25.088 207.453 25.088 206.952C25.088 206.344 24.9013 205.832 24.528 205.416C24.1653 204.989 23.6107 204.776 22.864 204.776C21.9787 204.776 21.376 205.027 21.056 205.528C20.736 206.019 20.576 206.563 20.576 207.16V207.272H19.216C19.216 206.632 19.3387 206.035 19.584 205.48C19.8293 204.915 20.224 204.456 20.768 204.104C21.3227 203.741 22.0213 203.56 22.864 203.56C23.664 203.56 24.3307 203.72 24.864 204.04C25.3973 204.349 25.7867 204.76 26.032 205.272C26.288 205.773 26.416 206.317 26.416 206.904C26.416 207.555 26.272 208.157 25.984 208.712C25.696 209.256 25.344 209.747 24.928 210.184C24.512 210.611 23.9413 211.139 23.216 211.768L21.024 213.688V213.768H26.528V215H19.136V213.8ZM32.1914 215.16C30.8474 215.16 29.8394 214.701 29.1674 213.784C28.506 212.856 28.1754 211.656 28.1754 210.184V208.52C28.1754 207.048 28.506 205.859 29.1674 204.952C29.8394 204.035 30.8474 203.576 32.1914 203.576C33.5354 203.576 34.538 204.035 35.1994 204.952C35.8607 205.859 36.1914 207.048 36.1914 208.52V210.184C36.1914 211.656 35.8554 212.856 35.1834 213.784C34.522 214.701 33.5247 215.16 32.1914 215.16ZM32.1914 213.944C33.002 213.944 33.6207 213.624 34.0474 212.984C34.4847 212.344 34.7034 211.395 34.7034 210.136V208.584C34.7034 207.325 34.49 206.381 34.0634 205.752C33.6367 205.112 33.0127 204.792 32.1914 204.792C31.37 204.792 30.7407 205.112 30.3034 205.752C29.8767 206.381 29.6634 207.325 29.6634 208.584V210.136C29.6634 211.395 29.8767 212.344 30.3034 212.984C30.7407 213.624 31.37 213.944 32.1914 213.944Z" fill="#404040"/>
<path d="M23.888 100.232L18.736 100.216V98.968L23.504 91.8H25.248V99.112H26.848V100.232H25.248V103H23.888V100.232ZM23.888 99.096V93.448L20.064 99.096H23.888ZM32.457 103.16C31.113 103.16 30.105 102.701 29.433 101.784C28.7717 100.856 28.441 99.656 28.441 98.184V96.52C28.441 95.048 28.7717 93.8587 29.433 92.952C30.105 92.0347 31.113 91.576 32.457 91.576C33.801 91.576 34.8037 92.0347 35.465 92.952C36.1263 93.8587 36.457 95.048 36.457 96.52V98.184C36.457 99.656 36.121 100.856 35.449 101.784C34.7877 102.701 33.7903 103.16 32.457 103.16ZM32.457 101.944C33.2677 101.944 33.8863 101.624 34.313 100.984C34.7503 100.344 34.969 99.3947 34.969 98.136V96.584C34.969 95.3253 34.7557 94.3813 34.329 93.752C33.9023 93.112 33.2783 92.792 32.457 92.792C31.6357 92.792 31.0063 93.112 30.569 93.752C30.1423 94.3813 29.929 95.3253 29.929 96.584V98.136C29.929 99.3947 30.1423 100.344 30.569 100.984C31.0063 101.624 31.6357 101.944 32.457 101.944Z" fill="#404040"/>
<path d="M22.992 44.064C22.2773 44.064 21.648 43.9253 21.104 43.648C20.56 43.3707 20.128 43.0133 19.808 42.576C19.488 42.128 19.2853 41.6427 19.2 41.12H20.576C20.7467 41.696 21.0507 42.1227 21.488 42.4C21.9253 42.6773 22.4213 42.816 22.976 42.816C23.7547 42.816 24.3573 42.5707 24.784 42.08C25.2107 41.5787 25.424 40.9227 25.424 40.112C25.424 39.248 25.1893 38.5973 24.72 38.16C24.2507 37.7227 23.664 37.504 22.96 37.504C22.2453 37.504 21.7333 37.664 21.424 37.984C21.1253 38.304 20.9173 38.6133 20.8 38.912L19.36 38.816L19.664 32.8H26.032V34.08H20.816L20.624 37.68H20.688C21.232 36.8587 22.0853 36.448 23.248 36.448C23.9413 36.448 24.5547 36.5973 25.088 36.896C25.632 37.184 26.0533 37.6053 26.352 38.16C26.6507 38.704 26.8 39.36 26.8 40.128C26.8 40.8747 26.6453 41.5467 26.336 42.144C26.0373 42.7413 25.6 43.2107 25.024 43.552C24.448 43.8933 23.7707 44.064 22.992 44.064ZM32.4883 44.16C31.1443 44.16 30.1363 43.7013 29.4643 42.784C28.8029 41.856 28.4723 40.656 28.4723 39.184V37.52C28.4723 36.048 28.8029 34.8587 29.4643 33.952C30.1363 33.0347 31.1443 32.576 32.4883 32.576C33.8323 32.576 34.8349 33.0347 35.4963 33.952C36.1576 34.8587 36.4883 36.048 36.4883 37.52V39.184C36.4883 40.656 36.1523 41.856 35.4803 42.784C34.8189 43.7013 33.8216 44.16 32.4883 44.16ZM32.4883 42.944C33.2989 42.944 33.9176 42.624 34.3443 41.984C34.7816 41.344 35.0003 40.3947 35.0003 39.136V37.584C35.0003 36.3253 34.7869 35.3813 34.3603 34.752C33.9336 34.112 33.3096 33.792 32.4883 33.792C31.6669 33.792 31.0376 34.112 30.6003 34.752C30.1736 35.3813 29.9603 36.3253 29.9603 37.584V39.136C29.9603 40.3947 30.1736 41.344 30.6003 41.984C31.0376 42.624 31.6669 42.944 32.4883 42.944Z" fill="#404040"/>
<path d="M25.216 18.768V20H19.536V18.768H21.808V10.448H21.744L19.504 12.56V10.912L21.744 8.8H23.104V18.768H25.216ZM30.7226 20.16C29.3786 20.16 28.3706 19.7013 27.6986 18.784C27.0373 17.856 26.7066 16.656 26.7066 15.184V13.52C26.7066 12.048 27.0373 10.8587 27.6986 9.952C28.3706 9.03467 29.3786 8.576 30.7226 8.576C32.0666 8.576 33.0693 9.03467 33.7306 9.952C34.392 10.8587 34.7226 12.048 34.7226 13.52V15.184C34.7226 16.656 34.3866 17.856 33.7146 18.784C33.0533 19.7013 32.056 20.16 30.7226 20.16ZM30.7226 18.944C31.5333 18.944 32.152 18.624 32.5786 17.984C33.016 17.344 33.2346 16.3947 33.2346 15.136V13.584C33.2346 12.3253 33.0213 11.3813 32.5946 10.752C32.168 10.112 31.544 9.792 30.7226 9.792C29.9013 9.792 29.272 10.112 28.8346 10.752C28.408 11.3813 28.1946 12.3253 28.1946 13.584V15.136C28.1946 16.3947 28.408 17.344 28.8346 17.984C29.272 18.624 29.9013 18.944 30.7226 18.944ZM40.457 20.16C39.113 20.16 38.105 19.7013 37.433 18.784C36.7717 17.856 36.441 16.656 36.441 15.184V13.52C36.441 12.048 36.7717 10.8587 37.433 9.952C38.105 9.03467 39.113 8.576 40.457 8.576C41.801 8.576 42.8037 9.03467 43.465 9.952C44.1263 10.8587 44.457 12.048 44.457 13.52V15.184C44.457 16.656 44.121 17.856 43.449 18.784C42.7877 19.7013 41.7903 20.16 40.457 20.16ZM40.457 18.944C41.2677 18.944 41.8863 18.624 42.313 17.984C42.7503 17.344 42.969 16.3947 42.969 15.136V13.584C42.969 12.3253 42.7557 11.3813 42.329 10.752C41.9023 10.112 41.2783 9.792 40.457 9.792C39.6357 9.792 39.0063 10.112 38.569 10.752C38.1423 11.3813 37.929 12.3253 37.929 13.584V15.136C37.929 16.3947 38.1423 17.344 38.569 17.984C39.0063 18.624 39.6357 18.944 40.457 18.944ZM46.8805 21.984C47.5312 21.696 47.8565 21.2693 47.8565 20.704C47.8565 20.4373 47.8085 20.2667 47.7125 20.192C47.6272 20.128 47.4938 20.096 47.3125 20.096C46.7792 20.096 46.5125 19.8347 46.5125 19.312C46.5125 19.024 46.5978 18.7947 46.7685 18.624C46.9498 18.4533 47.2005 18.368 47.5205 18.368C48.2778 18.368 48.6565 18.7787 48.6565 19.6V20.176C48.6565 20.8373 48.4912 21.36 48.1605 21.744C47.8405 22.1387 47.4138 22.416 46.8805 22.576V21.984ZM54.7226 20.16C53.3786 20.16 52.3706 19.7013 51.6986 18.784C51.0373 17.856 50.7066 16.656 50.7066 15.184V13.52C50.7066 12.048 51.0373 10.8587 51.6986 9.952C52.3706 9.03467 53.3786 8.576 54.7226 8.576C56.0666 8.576 57.0693 9.03467 57.7306 9.952C58.392 10.8587 58.7226 12.048 58.7226 13.52V15.184C58.7226 16.656 58.3866 17.856 57.7146 18.784C57.0533 19.7013 56.056 20.16 54.7226 20.16ZM54.7226 18.944C55.5333 18.944 56.152 18.624 56.5786 17.984C57.016 17.344 57.2346 16.3947 57.2346 15.136V13.584C57.2346 12.3253 57.0213 11.3813 56.5946 10.752C56.168 10.112 55.544 9.792 54.7226 9.792C53.9013 9.792 53.272 10.112 52.8346 10.752C52.408 11.3813 52.1946 12.3253 52.1946 13.584V15.136C52.1946 16.3947 52.408 17.344 52.8346 17.984C53.272 18.624 53.9013 18.944 54.7226 18.944ZM64.457 20.16C63.113 20.16 62.105 19.7013 61.433 18.784C60.7717 17.856 60.441 16.656 60.441 15.184V13.52C60.441 12.048 60.7717 10.8587 61.433 9.952C62.105 9.03467 63.113 8.576 64.457 8.576C65.801 8.576 66.8037 9.03467 67.465 9.952C68.1263 10.8587 68.457 12.048 68.457 13.52V15.184C68.457 16.656 68.121 17.856 67.449 18.784C66.7877 19.7013 65.7903 20.16 64.457 20.16ZM64.457 18.944C65.2677 18.944 65.8863 18.624 66.313 17.984C66.7503 17.344 66.969 16.3947 66.969 15.136V13.584C66.969 12.3253 66.7557 11.3813 66.329 10.752C65.9023 10.112 65.2783 9.792 64.457 9.792C63.6357 9.792 63.0063 10.112 62.569 10.752C62.1423 11.3813 61.929 12.3253 61.929 13.584V15.136C61.929 16.3947 62.1423 17.344 62.569 17.984C63.0063 18.624 63.6357 18.944 64.457 18.944ZM74.1914 20.16C72.8474 20.16 71.8394 19.7013 71.1674 18.784C70.506 17.856 70.1754 16.656 70.1754 15.184V13.52C70.1754 12.048 70.506 10.8587 71.1674 9.952C71.8394 9.03467 72.8474 8.576 74.1914 8.576C75.5354 8.576 76.538 9.03467 77.1994 9.952C77.8607 10.8587 78.1914 12.048 78.1914 13.52V15.184C78.1914 16.656 77.8554 17.856 77.1834 18.784C76.522 19.7013 75.5247 20.16 74.1914 20.16ZM74.1914 18.944C75.002 18.944 75.6207 18.624 76.0474 17.984C76.4847 17.344 76.7034 16.3947 76.7034 15.136V13.584C76.7034 12.3253 76.49 11.3813 76.0634 10.752C75.6367 10.112 75.0127 9.792 74.1914 9.792C73.37 9.792 72.7407 10.112 72.3034 10.752C71.8767 11.3813 71.6634 12.3253 71.6634 13.584V15.136C71.6634 16.3947 71.8767 17.344 72.3034 17.984C72.7407 18.624 73.37 18.944 74.1914 18.944ZM88.2224 20.144C86.793 20.144 85.6944 19.7067 84.9264 18.832C84.1584 17.9467 83.7744 16.6933 83.7744 15.072V8.8H85.1344V15.024C85.1344 15.9627 85.337 16.832 85.7424 17.632C86.1584 18.4213 86.985 18.816 88.2224 18.816C89.4384 18.816 90.249 18.4213 90.6544 17.632C91.0597 16.8427 91.2624 15.9733 91.2624 15.024V8.8H92.6224V15.072C92.6224 16.6933 92.2384 17.9467 91.4704 18.832C90.713 19.7067 89.6304 20.144 88.2224 20.144ZM98.5679 20.128C97.7039 20.128 96.9625 19.952 96.3439 19.6C95.7359 19.2373 95.2772 18.7733 94.9679 18.208C94.6585 17.6427 94.5039 17.0507 94.5039 16.432V16.352H96.0239V16.432C96.0239 16.8053 96.1092 17.1787 96.2799 17.552C96.4612 17.9253 96.7439 18.24 97.1279 18.496C97.5119 18.7413 98.0025 18.864 98.5999 18.864C99.3039 18.864 99.8852 18.6827 100.344 18.32C100.803 17.9573 101.032 17.4667 101.032 16.848C101.032 16.336 100.861 15.9307 100.52 15.632C100.189 15.3227 99.7625 15.1147 99.2399 15.008L97.6079 14.704C95.7305 14.288 94.7919 13.3013 94.7919 11.744C94.7919 11.104 94.9465 10.544 95.2559 10.064C95.5652 9.584 95.9919 9.216 96.5359 8.96C97.0905 8.69333 97.7305 8.56 98.4559 8.56C99.2772 8.56 99.9812 8.72533 100.568 9.056C101.155 9.38667 101.597 9.81867 101.896 10.352C102.195 10.8747 102.344 11.4187 102.344 11.984V12.048H100.824V12C100.824 11.68 100.744 11.3547 100.584 11.024C100.435 10.6827 100.179 10.3893 99.8159 10.144C99.4639 9.89867 98.9945 9.776 98.4079 9.776C97.7359 9.776 97.1972 9.96267 96.7919 10.336C96.3972 10.7093 96.1999 11.1733 96.1999 11.728C96.1999 12.1973 96.3545 12.5813 96.6639 12.88C96.9732 13.1787 97.3945 13.3813 97.9279 13.488L99.3999 13.776C101.459 14.192 102.488 15.2 102.488 16.8C102.488 17.4507 102.323 18.0267 101.992 18.528C101.672 19.0293 101.213 19.424 100.616 19.712C100.019 19.9893 99.3359 20.128 98.5679 20.128ZM104.497 8.8H108.593C109.596 8.8 110.47 9.02933 111.217 9.488C111.974 9.936 112.556 10.5813 112.961 11.424C113.377 12.256 113.585 13.2427 113.585 14.384C113.585 15.5253 113.377 16.5227 112.961 17.376C112.556 18.2187 111.974 18.8693 111.217 19.328C110.46 19.776 109.58 20 108.577 20H104.497V8.8ZM108.385 18.72C109.516 18.72 110.422 18.352 111.105 17.616C111.788 16.8693 112.129 15.792 112.129 14.384C112.129 12.976 111.788 11.904 111.105 11.168C110.433 10.4213 109.526 10.048 108.385 10.048H105.841V18.72H108.385Z" fill="#404040"/>
<path d="M178.216 345.768V347H172.536V345.768H174.808V337.448H174.744L172.504 339.56V337.912L174.744 335.8H176.104V345.768H178.216ZM183.723 347.16C182.379 347.16 181.371 346.701 180.699 345.784C180.037 344.856 179.707 343.656 179.707 342.184V340.52C179.707 339.048 180.037 337.859 180.699 336.952C181.371 336.035 182.379 335.576 183.723 335.576C185.067 335.576 186.069 336.035 186.731 336.952C187.392 337.859 187.723 339.048 187.723 340.52V342.184C187.723 343.656 187.387 344.856 186.715 345.784C186.053 346.701 185.056 347.16 183.723 347.16ZM183.723 345.944C184.533 345.944 185.152 345.624 185.579 344.984C186.016 344.344 186.235 343.395 186.235 342.136V340.584C186.235 339.325 186.021 338.381 185.595 337.752C185.168 337.112 184.544 336.792 183.723 336.792C182.901 336.792 182.272 337.112 181.835 337.752C181.408 338.381 181.195 339.325 181.195 340.584V342.136C181.195 343.395 181.408 344.344 181.835 344.984C182.272 345.624 182.901 345.944 183.723 345.944Z" fill="white"/>
<path d="M282.216 345.768V347H276.536V345.768H278.808V337.448H278.744L276.504 339.56V337.912L278.744 335.8H280.104V345.768H282.216ZM287.883 347.064C287.168 347.064 286.539 346.925 285.995 346.648C285.451 346.371 285.019 346.013 284.699 345.576C284.379 345.128 284.176 344.643 284.091 344.12H285.467C285.637 344.696 285.941 345.123 286.379 345.4C286.816 345.677 287.312 345.816 287.867 345.816C288.645 345.816 289.248 345.571 289.675 345.08C290.101 344.579 290.315 343.923 290.315 343.112C290.315 342.248 290.08 341.597 289.611 341.16C289.141 340.723 288.555 340.504 287.851 340.504C287.136 340.504 286.624 340.664 286.315 340.984C286.016 341.304 285.808 341.613 285.691 341.912L284.251 341.816L284.555 335.8H290.923V337.08H285.707L285.515 340.68H285.579C286.123 339.859 286.976 339.448 288.139 339.448C288.832 339.448 289.445 339.597 289.979 339.896C290.523 340.184 290.944 340.605 291.243 341.16C291.541 341.704 291.691 342.36 291.691 343.128C291.691 343.875 291.536 344.547 291.227 345.144C290.928 345.741 290.491 346.211 289.915 346.552C289.339 346.893 288.661 347.064 287.883 347.064Z" fill="white"/>
<path d="M380.136 345.8L382.824 343.384L383.112 343.144C383.795 342.547 384.328 342.056 384.712 341.672C385.107 341.277 385.432 340.851 385.688 340.392C385.955 339.933 386.088 339.453 386.088 338.952C386.088 338.344 385.901 337.832 385.528 337.416C385.165 336.989 384.611 336.776 383.864 336.776C382.979 336.776 382.376 337.027 382.056 337.528C381.736 338.019 381.576 338.563 381.576 339.16V339.272H380.216C380.216 338.632 380.339 338.035 380.584 337.48C380.829 336.915 381.224 336.456 381.768 336.104C382.323 335.741 383.021 335.56 383.864 335.56C384.664 335.56 385.331 335.72 385.864 336.04C386.397 336.349 386.787 336.76 387.032 337.272C387.288 337.773 387.416 338.317 387.416 338.904C387.416 339.555 387.272 340.157 386.984 340.712C386.696 341.256 386.344 341.747 385.928 342.184C385.512 342.611 384.941 343.139 384.216 343.768L382.024 345.688V345.768H387.528V347H380.136V345.8ZM393.191 347.16C391.847 347.16 390.839 346.701 390.167 345.784C389.506 344.856 389.175 343.656 389.175 342.184V340.52C389.175 339.048 389.506 337.859 390.167 336.952C390.839 336.035 391.847 335.576 393.191 335.576C394.535 335.576 395.538 336.035 396.199 336.952C396.861 337.859 397.191 339.048 397.191 340.52V342.184C397.191 343.656 396.855 344.856 396.183 345.784C395.522 346.701 394.525 347.16 393.191 347.16ZM393.191 345.944C394.002 345.944 394.621 345.624 395.047 344.984C395.485 344.344 395.703 343.395 395.703 342.136V340.584C395.703 339.325 395.49 338.381 395.063 337.752C394.637 337.112 394.013 336.792 393.191 336.792C392.37 336.792 391.741 337.112 391.303 337.752C390.877 338.381 390.663 339.325 390.663 340.584V342.136C390.663 343.395 390.877 344.344 391.303 344.984C391.741 345.624 392.37 345.944 393.191 345.944Z" fill="white"/>
<path d="M485.136 345.8L487.824 343.384L488.112 343.144C488.795 342.547 489.328 342.056 489.712 341.672C490.107 341.277 490.432 340.851 490.688 340.392C490.955 339.933 491.088 339.453 491.088 338.952C491.088 338.344 490.901 337.832 490.528 337.416C490.165 336.989 489.611 336.776 488.864 336.776C487.979 336.776 487.376 337.027 487.056 337.528C486.736 338.019 486.576 338.563 486.576 339.16V339.272H485.216C485.216 338.632 485.339 338.035 485.584 337.48C485.829 336.915 486.224 336.456 486.768 336.104C487.323 335.741 488.021 335.56 488.864 335.56C489.664 335.56 490.331 335.72 490.864 336.04C491.397 336.349 491.787 336.76 492.032 337.272C492.288 337.773 492.416 338.317 492.416 338.904C492.416 339.555 492.272 340.157 491.984 340.712C491.696 341.256 491.344 341.747 490.928 342.184C490.512 342.611 489.941 343.139 489.216 343.768L487.024 345.688V345.768H492.528V347H485.136V345.8ZM498.351 347.064C497.637 347.064 497.007 346.925 496.463 346.648C495.919 346.371 495.487 346.013 495.167 345.576C494.847 345.128 494.645 344.643 494.559 344.12H495.935C496.106 344.696 496.41 345.123 496.847 345.4C497.285 345.677 497.781 345.816 498.335 345.816C499.114 345.816 499.717 345.571 500.143 345.08C500.57 344.579 500.783 343.923 500.783 343.112C500.783 342.248 500.549 341.597 500.079 341.16C499.61 340.723 499.023 340.504 498.319 340.504C497.605 340.504 497.093 340.664 496.783 340.984C496.485 341.304 496.277 341.613 496.159 341.912L494.719 341.816L495.023 335.8H501.391V337.08H496.175L495.983 340.68H496.047C496.591 339.859 497.445 339.448 498.607 339.448C499.301 339.448 499.914 339.597 500.447 339.896C500.991 340.184 501.413 340.605 501.711 341.16C502.01 341.704 502.159 342.36 502.159 343.128C502.159 343.875 502.005 344.547 501.695 345.144C501.397 345.741 500.959 346.211 500.383 346.552C499.807 346.893 499.13 347.064 498.351 347.064Z" fill="white"/>
<path d="M592.848 347.128C591.696 347.128 590.8 346.851 590.16 346.296C589.531 345.741 589.141 345.059 588.992 344.248H590.384C590.533 344.739 590.811 345.133 591.216 345.432C591.632 345.731 592.171 345.88 592.832 345.88C593.621 345.88 594.213 345.683 594.608 345.288C595.013 344.893 595.216 344.397 595.216 343.8C595.216 343.139 594.987 342.632 594.528 342.28C594.069 341.928 593.504 341.752 592.832 341.752H591.776V340.648H592.768C593.408 340.648 593.952 340.499 594.4 340.2C594.848 339.901 595.072 339.416 595.072 338.744C595.072 338.125 594.864 337.635 594.448 337.272C594.032 336.909 593.483 336.728 592.8 336.728C592.16 336.728 591.653 336.877 591.28 337.176C590.917 337.475 590.683 337.864 590.576 338.344H589.232C589.36 337.576 589.707 336.92 590.272 336.376C590.837 335.821 591.685 335.544 592.816 335.544C593.627 335.544 594.304 335.693 594.848 335.992C595.392 336.291 595.792 336.68 596.048 337.16C596.304 337.629 596.432 338.136 596.432 338.68C596.432 339.256 596.304 339.731 596.048 340.104C595.792 340.467 595.509 340.739 595.2 340.92C594.901 341.091 594.699 341.176 594.592 341.176V341.272C594.731 341.283 594.955 341.368 595.264 341.528C595.584 341.688 595.877 341.965 596.144 342.36C596.421 342.755 596.56 343.272 596.56 343.912C596.56 344.499 596.427 345.037 596.16 345.528C595.893 346.008 595.477 346.397 594.912 346.696C594.357 346.984 593.669 347.128 592.848 347.128ZM602.207 347.16C600.863 347.16 599.855 346.701 599.183 345.784C598.522 344.856 598.191 343.656 598.191 342.184V340.52C598.191 339.048 598.522 337.859 599.183 336.952C599.855 336.035 600.863 335.576 602.207 335.576C603.551 335.576 604.554 336.035 605.215 336.952C605.876 337.859 606.207 339.048 606.207 340.52V342.184C606.207 343.656 605.871 344.856 605.199 345.784C604.538 346.701 603.54 347.16 602.207 347.16ZM602.207 345.944C603.018 345.944 603.636 345.624 604.063 344.984C604.5 344.344 604.719 343.395 604.719 342.136V340.584C604.719 339.325 604.506 338.381 604.079 337.752C603.652 337.112 603.028 336.792 602.207 336.792C601.386 336.792 600.756 337.112 600.319 337.752C599.892 338.381 599.679 339.325 599.679 340.584V342.136C599.679 343.395 599.892 344.344 600.319 344.984C600.756 345.624 601.386 345.944 602.207 345.944Z" fill="white"/>
</svg>
