<svg width="102" height="84" viewBox="0 0 102 84" fill="none" xmlns="http://www.w3.org/2000/svg">
<path d="M2 37.6644L3.5 39.5145C5 41.3646 8 45.0648 11 44.9991C14 44.9335 17 41.1021 20 40.2397C23 39.3772 26 41.4836 29 37.8856C32 34.2876 35 24.9852 38 23.5364C41 22.0875 44 28.4921 47 27.7304C50 26.9686 53 19.0405 56 15.9623C59 12.884 62 14.6555 65 16.8393C68 19.023 71 21.6189 74 23.2265C77 24.8341 80 25.4535 83 22.277C86 19.1006 89 12.1284 92 8.11626C95 4.10412 98 3.05206 99.5 2.52603L101 2" stroke="#4A9500" stroke-width="3"/>
<path d="M31.416 79.12C30.296 79.12 29.32 78.904 28.488 78.472C27.656 78.04 27 77.472 26.52 76.768C26.04 76.064 25.736 75.304 25.608 74.488H28.104C28.312 75.288 28.72 75.888 29.328 76.288C29.936 76.688 30.624 76.888 31.392 76.888C32.464 76.888 33.288 76.552 33.864 75.88C34.456 75.192 34.752 74.288 34.752 73.168C34.752 72 34.432 71.104 33.792 70.48C33.168 69.856 32.36 69.544 31.368 69.544C30.392 69.544 29.688 69.76 29.256 70.192C28.84 70.624 28.544 71.056 28.368 71.488L25.824 71.392L26.28 62.2H36.12V64.48H28.344L28.08 69.472H28.2C28.424 69.104 28.824 68.72 29.4 68.32C29.976 67.904 30.824 67.696 31.944 67.696C32.984 67.696 33.904 67.92 34.704 68.368C35.504 68.8 36.12 69.432 36.552 70.264C37 71.096 37.224 72.072 37.224 73.192C37.224 74.296 36.992 75.296 36.528 76.192C36.08 77.088 35.416 77.8 34.536 78.328C33.672 78.856 32.632 79.12 31.416 79.12ZM40.8855 82.096C41.8935 81.664 42.3975 81.016 42.3975 80.152C42.3975 79.72 42.3175 79.448 42.1575 79.336C41.9975 79.24 41.7575 79.192 41.4375 79.192C40.9895 79.176 40.6695 79.04 40.4775 78.784C40.2855 78.528 40.1895 78.232 40.1895 77.896C40.1895 77.432 40.3335 77.056 40.6215 76.768C40.9095 76.464 41.3255 76.312 41.8695 76.312C43.1175 76.312 43.7415 76.984 43.7415 78.328V79.264C43.7415 80.32 43.4775 81.152 42.9495 81.76C42.4375 82.368 41.7495 82.792 40.8855 83.032V82.096ZM52.7385 79.192C51.7145 79.192 50.7545 78.984 49.8585 78.568C48.9625 78.152 48.2265 77.504 47.6505 76.624C47.0905 75.728 46.8105 74.616 46.8105 73.288C46.8105 71.96 47.0585 70.744 47.5545 69.64C48.0665 68.536 48.8105 67.272 49.7865 65.848L52.2345 62.2H54.7065L49.5945 69.832L49.6665 69.856L50.0505 69.472C50.9305 68.592 52.0185 68.152 53.3145 68.152C54.3065 68.152 55.1945 68.384 55.9785 68.848C56.7625 69.296 57.3785 69.936 57.8265 70.768C58.2745 71.584 58.4985 72.528 58.4985 73.6C58.4985 74.784 58.2345 75.8 57.7065 76.648C57.1945 77.48 56.4985 78.112 55.6185 78.544C54.7545 78.976 53.7945 79.192 52.7385 79.192ZM52.6185 77.152C53.3545 77.152 53.9865 76.992 54.5145 76.672C55.0425 76.336 55.4345 75.896 55.6905 75.352C55.9625 74.808 56.0985 74.232 56.0985 73.624C56.0985 73.016 55.9625 72.44 55.6905 71.896C55.4185 71.336 55.0185 70.888 54.4905 70.552C53.9625 70.2 53.3305 70.024 52.5945 70.024C51.5385 70.024 50.7065 70.376 50.0985 71.08C49.5065 71.768 49.2105 72.608 49.2105 73.6C49.2105 74.576 49.5145 75.416 50.1225 76.12C50.7305 76.808 51.5625 77.152 52.6185 77.152ZM63.7988 68.896C62.7108 68.896 61.8948 68.552 61.3508 67.864C60.8228 67.176 60.5588 66.36 60.5588 65.416C60.5588 64.472 60.8228 63.664 61.3508 62.992C61.8788 62.304 62.6948 61.96 63.7988 61.96C64.9028 61.96 65.7028 62.296 66.1988 62.968C66.7108 63.64 66.9668 64.456 66.9668 65.416C66.9668 66.376 66.7108 67.2 66.1988 67.888C65.7028 68.56 64.9028 68.896 63.7988 68.896ZM72.7988 62.2H74.9348L66.2708 79H64.1348L72.7988 62.2ZM63.8228 67.456C64.3988 67.456 64.7828 67.256 64.9748 66.856C65.1668 66.456 65.2628 65.976 65.2628 65.416C65.2628 64.056 64.7828 63.376 63.8228 63.376C63.2468 63.376 62.8548 63.584 62.6468 64C62.4548 64.416 62.3588 64.888 62.3588 65.416C62.3588 65.96 62.4628 66.44 62.6708 66.856C62.8788 67.256 63.2628 67.456 63.8228 67.456ZM75.3188 79.24C74.2308 79.24 73.4148 78.896 72.8708 78.208C72.3428 77.52 72.0788 76.704 72.0788 75.76C72.0788 74.832 72.3428 74.024 72.8708 73.336C73.3988 72.648 74.2148 72.304 75.3188 72.304C76.4068 72.304 77.2068 72.648 77.7188 73.336C78.2308 74.008 78.4868 74.816 78.4868 75.76C78.4868 76.704 78.2308 77.52 77.7188 78.208C77.2068 78.896 76.4068 79.24 75.3188 79.24ZM75.3428 77.8C75.9188 77.8 76.3028 77.608 76.4948 77.224C76.6868 76.824 76.7828 76.336 76.7828 75.76C76.7828 75.2 76.6868 74.72 76.4948 74.32C76.3188 73.92 75.9348 73.72 75.3428 73.72C74.7828 73.72 74.3988 73.928 74.1908 74.344C73.9988 74.744 73.9028 75.216 73.9028 75.76C73.9028 77.12 74.3828 77.8 75.3428 77.8Z" fill="#4A9500"/>
</svg>
