<svg width="48" height="48" viewBox="0 0 48 48" fill="none" xmlns="http://www.w3.org/2000/svg">
<path fill-rule="evenodd" clip-rule="evenodd" d="M23.922 7.7516C15.0259 7.7516 7.81416 14.9633 7.81416 23.8594C7.81416 32.7555 15.0259 39.9672 23.922 39.9672C32.8181 39.9672 40.0298 32.7555 40.0298 23.8594C40.0298 14.9633 32.8181 7.7516 23.922 7.7516ZM5.70166 23.8594C5.70166 13.7966 13.8592 5.6391 23.922 5.6391C33.9848 5.6391 42.1423 13.7966 42.1423 23.8594C42.1423 33.9222 33.9848 42.0797 23.922 42.0797C13.8592 42.0797 5.70166 33.9222 5.70166 23.8594Z" fill="white"/>
<path fill-rule="evenodd" clip-rule="evenodd" d="M17.8938 24.6063C17.4814 24.1938 17.4814 23.525 17.8938 23.1126L25.8157 15.1907C26.2282 14.7782 26.897 14.7782 27.3095 15.1907C27.722 15.6032 27.722 16.272 27.3095 16.6844L20.1345 23.8594L27.3095 31.0344C27.722 31.4469 27.722 32.1157 27.3095 32.5282C26.897 32.9407 26.2282 32.9407 25.8157 32.5282L17.8938 24.6063Z" fill="white"/>
</svg>
