<svg width="32" height="32" viewBox="0 0 32 32" fill="none" xmlns="http://www.w3.org/2000/svg">
<path d="M28.0001 5V27C28.0001 27.2652 27.8948 27.5196 27.7072 27.7071C27.5197 27.8946 27.2653 28 27.0001 28C26.7349 28 26.4806 27.8946 26.293 27.7071C26.1055 27.5196 26.0001 27.2652 26.0001 27V5C26.0001 4.73478 26.1055 4.48043 26.293 4.29289C26.4806 4.10536 26.7349 4 27.0001 4C27.2653 4 27.5197 4.10536 27.7072 4.29289C27.8948 4.48043 28.0001 4.73478 28.0001 5ZM24.0001 16C24.0013 16.682 23.8272 17.3529 23.4944 17.9483C23.1617 18.5437 22.6816 19.0436 22.1001 19.4L9.81413 27.012C9.20823 27.3885 8.51268 27.596 7.79957 27.6132C7.08645 27.6304 6.38171 27.4566 5.75837 27.1098C5.13503 26.763 4.61577 26.2558 4.2544 25.6408C3.89303 25.0258 3.7027 24.3253 3.70313 23.612V8.392C3.7027 7.67868 3.89303 6.97821 4.2544 6.3632C4.61577 5.74819 5.13503 5.24099 5.75837 4.89418C6.38171 4.54737 7.08645 4.37356 7.79957 4.39076C8.51268 4.40796 9.20823 4.61554 9.81413 4.992L22.1001 12.6C22.6816 12.9564 23.1617 13.4563 23.4944 14.0517C23.8272 14.6471 24.0013 15.318 24.0001 16ZM22.0001 16C22.0033 15.6586 21.9174 15.3223 21.751 15.0242C21.5846 14.7261 21.3434 14.4765 21.0511 14.3L8.76113 6.688C8.45779 6.49816 8.10907 6.39318 7.75135 6.38401C7.39362 6.37485 7.03998 6.46183 6.72732 6.63588C6.41466 6.80993 6.15442 7.06469 5.97374 7.37357C5.79307 7.68246 5.69858 8.03416 5.70013 8.392V23.608C5.69963 23.965 5.79473 24.3157 5.97554 24.6236C6.15635 24.9315 6.41629 25.1853 6.72835 25.3588C7.04042 25.5323 7.39323 25.6191 7.75017 25.6101C8.1071 25.6012 8.45513 25.4969 8.75813 25.308L21.0511 17.7C21.3432 17.5233 21.5842 17.2736 21.7506 16.9756C21.917 16.6775 22.003 16.3413 22.0001 16Z" fill="white"/>
</svg>
