<svg width="32" height="32" viewBox="0 0 32 32" fill="none" xmlns="http://www.w3.org/2000/svg">
<path d="M3.99987 27V5C3.99987 4.73478 4.10523 4.48043 4.29277 4.29289C4.4803 4.10536 4.73466 4 4.99987 4C5.26509 4 5.51945 4.10536 5.70698 4.29289C5.89452 4.48043 5.99987 4.73478 5.99987 5V27C5.99987 27.2652 5.89452 27.5196 5.70698 27.7071C5.51945 27.8946 5.26509 28 4.99987 28C4.73466 28 4.4803 27.8946 4.29277 27.7071C4.10523 27.5196 3.99987 27.2652 3.99987 27ZM7.99987 16C7.99871 15.318 8.17284 14.6471 8.50555 14.0517C8.83826 13.4563 9.31839 12.9564 9.89987 12.6L22.1859 4.988C22.7918 4.61154 23.4873 4.40396 24.2004 4.38676C24.9135 4.36956 25.6183 4.54337 26.2416 4.89018C26.865 5.237 27.3842 5.74418 27.7456 6.3592C28.107 6.97421 28.2973 7.67468 28.2969 8.388V23.608C28.2973 24.3213 28.107 25.0218 27.7456 25.6368C27.3842 26.2518 26.865 26.759 26.2416 27.1058C25.6183 27.4526 24.9135 27.6264 24.2004 27.6092C23.4873 27.592 22.7918 27.3845 22.1859 27.008L9.89987 19.4C9.31839 19.0436 8.83826 18.5437 8.50555 17.9483C8.17284 17.3529 7.99871 16.682 7.99987 16ZM9.99987 16C9.99675 16.3414 10.0826 16.6777 10.249 16.9758C10.4154 17.2739 10.6566 17.5235 10.9489 17.7L23.2389 25.312C23.5422 25.5018 23.8909 25.6068 24.2487 25.616C24.6064 25.6252 24.96 25.5382 25.2727 25.3641C25.5853 25.1901 25.8456 24.9353 26.0263 24.6264C26.2069 24.3175 26.3014 23.9658 26.2999 23.608V8.392C26.3004 8.03496 26.2053 7.68429 26.0245 7.37642C25.8436 7.06854 25.5837 6.81468 25.2716 6.6412C24.9596 6.46771 24.6068 6.38093 24.2498 6.38987C23.8929 6.3988 23.5449 6.50312 23.2419 6.692L10.9489 14.3C10.6568 14.4767 10.4158 14.7264 10.2494 15.0244C10.083 15.3225 9.99705 15.6587 9.99987 16Z" fill="white"/>
</svg>
