<svg width="56" height="56" viewBox="0 0 56 56" fill="none" xmlns="http://www.w3.org/2000/svg">
<path d="M35.3893 27.1241L26.0867 20.361C25.7453 20.1135 25.2921 20.0762 24.9179 20.2685C24.5407 20.4594 24.3052 20.847 24.3052 21.266V34.7879C24.3052 35.2113 24.5407 35.5975 24.9179 35.7883C25.0774 35.8688 25.2518 35.9091 25.4277 35.9091C25.6573 35.9091 25.8899 35.836 26.0867 35.6914L35.3893 28.9342C35.683 28.718 35.8544 28.384 35.8544 28.0292C35.8559 27.6684 35.68 27.3359 35.3893 27.1241Z" fill="white"/>
<path d="M28.0008 5.6001C15.6272 5.6001 5.6001 15.6285 5.6001 28.0038C5.6001 40.3746 15.6272 50.4001 28.0008 50.4001C40.3715 50.4001 50.4001 40.3731 50.4001 28.0038C50.4016 15.6285 40.3715 5.6001 28.0008 5.6001ZM28.0008 46.6622C17.6964 46.6622 9.342 38.3111 9.342 28.0038C9.342 17.701 17.6964 9.33952 28.0008 9.33952C38.3038 9.33952 46.6567 17.6995 46.6567 28.0038C46.6582 38.3111 38.3038 46.6622 28.0008 46.6622Z" fill="white"/>
</svg>
