<svg width="48" height="48" viewBox="0 0 48 48" fill="none" xmlns="http://www.w3.org/2000/svg">
<path fill-rule="evenodd" clip-rule="evenodd" d="M24.078 7.7516C32.9741 7.7516 40.1858 14.9633 40.1858 23.8594C40.1858 32.7555 32.9741 39.9672 24.078 39.9672C15.1819 39.9672 7.97023 32.7555 7.97023 23.8594C7.97023 14.9633 15.1819 7.7516 24.078 7.7516ZM42.2983 23.8594C42.2983 13.7966 34.1408 5.6391 24.078 5.6391C14.0152 5.6391 5.85773 13.7966 5.85773 23.8594C5.85773 33.9222 14.0152 42.0797 24.078 42.0797C34.1408 42.0797 42.2983 33.9222 42.2983 23.8594Z" fill="white"/>
<path fill-rule="evenodd" clip-rule="evenodd" d="M30.1062 24.6063C30.5186 24.1938 30.5186 23.525 30.1062 23.1126L22.1843 15.1907C21.7718 14.7782 21.103 14.7782 20.6905 15.1907C20.278 15.6032 20.278 16.272 20.6905 16.6844L27.8655 23.8594L20.6905 31.0344C20.278 31.4469 20.278 32.1157 20.6905 32.5282C21.103 32.9407 21.7718 32.9407 22.1843 32.5282L30.1062 24.6063Z" fill="white"/>
</svg>
