<svg width="40" height="40" viewBox="0 0 40 40" fill="none" xmlns="http://www.w3.org/2000/svg">
<path d="M21.4933 36H18.5067C17.4973 36 16.6453 35.244 16.5253 34.24L16.2067 31.7387C15.5707 31.532 14.9573 31.2773 14.3747 30.98L12.3827 32.528C11.5747 33.1533 10.4373 33.0813 9.736 32.36L7.636 30.26C6.92 29.5653 6.848 28.428 7.47333 27.6213L9.02133 25.628C8.72267 25.0453 8.468 24.432 8.26267 23.796L5.756 23.4773C4.756 23.3547 4 22.5027 4 21.4933V18.5067C4 17.4973 4.756 16.6453 5.76 16.5253L8.26133 16.2067C8.468 15.5707 8.72267 14.9573 9.02 14.3747L7.47333 12.3827C6.84667 11.5747 6.92 10.436 7.64267 9.73467L9.74267 7.63467C10.4373 6.91867 11.576 6.848 12.3813 7.472L14.3733 9.02133C14.956 8.724 15.5693 8.46933 16.2067 8.26267L16.5253 5.756C16.6453 4.756 17.4973 4 18.5067 4H21.4933C22.5027 4 23.3547 4.756 23.4747 5.76L23.7933 8.26133C24.4307 8.468 25.044 8.72267 25.6267 9.02L27.6187 7.472C28.428 6.84667 29.564 6.91867 30.2653 7.64133L32.3653 9.74133C33.0813 10.436 33.1533 11.5733 32.528 12.38L30.98 14.3733C31.2787 14.956 31.5333 15.5693 31.7387 16.2053L34.2453 16.524C35.244 16.6453 36 17.4973 36 18.5067V21.4933C36 22.5027 35.244 23.3547 34.24 23.4747L31.7387 23.7933C31.532 24.4293 31.2773 25.0427 30.98 25.6253L32.528 27.6173C33.1547 28.4253 33.0813 29.5627 32.3587 30.264L30.2587 32.364C29.564 33.08 28.4253 33.1533 27.62 32.5267L25.6267 30.9787C25.044 31.2773 24.4307 31.532 23.7947 31.7373L23.476 34.244C23.3547 35.244 22.5027 36 21.4933 36ZM14.3067 29.52C14.4173 29.52 14.5307 29.548 14.632 29.604C15.3667 30.0147 16.1627 30.3453 16.9973 30.5853C17.2533 30.6587 17.4413 30.8773 17.4747 31.1413L17.848 34.0747C17.888 34.4093 18.1773 34.6667 18.5067 34.6667H21.4933C21.8227 34.6667 22.112 34.4093 22.1507 34.0813L22.5253 31.1427C22.5587 30.8787 22.7467 30.66 23.0027 30.5867C23.8373 30.3467 24.6333 30.016 25.368 29.6053C25.6013 29.4747 25.892 29.4973 26.1013 29.6613L28.4347 31.4747C28.7027 31.6827 29.0787 31.6653 29.308 31.4293L31.4213 29.316C31.6627 29.0813 31.6813 28.7053 31.4733 28.436L29.66 26.1027C29.496 25.892 29.4733 25.6027 29.604 25.3693C30.0147 24.6347 30.3453 23.8387 30.5853 23.004C30.6587 22.748 30.8773 22.56 31.1413 22.5267L34.0747 22.1533C34.4093 22.112 34.6667 21.8227 34.6667 21.4933V18.5067C34.6667 18.1773 34.4093 17.888 34.0813 17.8493L31.1427 17.4747C30.8787 17.4413 30.66 17.2533 30.5867 16.9973C30.3467 16.1627 30.016 15.3667 29.6053 14.632C29.4747 14.3987 29.496 14.1093 29.6613 13.8987L31.4747 11.5653C31.684 11.296 31.6653 10.92 31.4307 10.6933L29.3173 8.58C29.084 8.33733 28.7067 8.31867 28.4373 8.528L26.104 10.3413C25.892 10.5053 25.6027 10.528 25.3693 10.3973C24.6373 9.98667 23.8413 9.65733 23.004 9.416C22.748 9.34267 22.56 9.124 22.5267 8.86L22.1533 5.92667C22.112 5.59067 21.8227 5.33333 21.4933 5.33333H18.5067C18.1773 5.33333 17.888 5.59067 17.8493 5.91867L17.4747 8.85733C17.4413 9.12133 17.2533 9.34 16.9973 9.41467C16.16 9.65467 15.364 9.98533 14.632 10.3947C14.3987 10.5267 14.1093 10.5027 13.8973 10.34L11.564 8.52667C11.2947 8.31733 10.92 8.336 10.692 8.57067L8.57867 10.6853C8.33733 10.92 8.31867 11.296 8.52667 11.5653L10.34 13.8987C10.504 14.1093 10.5267 14.3987 10.396 14.632C9.984 15.3667 9.65467 16.1627 9.41467 16.9973C9.34133 17.2533 9.12267 17.4413 8.85867 17.4747L5.92533 17.848C5.59067 17.888 5.33333 18.1773 5.33333 18.5067V21.4933C5.33333 21.8227 5.59067 22.112 5.91867 22.1507L8.85733 22.5253C9.12133 22.5587 9.34 22.7467 9.41333 23.0027C9.65333 23.8373 9.984 24.6333 10.3947 25.368C10.5253 25.6013 10.504 25.8907 10.3387 26.1013L8.52533 28.4347C8.316 28.704 8.33467 29.08 8.56933 29.3067L10.6827 31.42C10.916 31.6613 11.2907 31.68 11.5627 31.472L13.896 29.6587C14.0173 29.568 14.1613 29.52 14.3067 29.52Z" fill="white"/>
<path d="M20 26.6666C16.324 26.6666 13.3333 23.6759 13.3333 19.9999C13.3333 16.3239 16.324 13.3333 20 13.3333C23.676 13.3333 26.6666 16.3239 26.6666 19.9999C26.6666 23.6759 23.676 26.6666 20 26.6666ZM20 14.6666C17.0586 14.6666 14.6666 17.0586 14.6666 19.9999C14.6666 22.9413 17.0586 25.3333 20 25.3333C22.9413 25.3333 25.3333 22.9413 25.3333 19.9999C25.3333 17.0586 22.9413 14.6666 20 14.6666Z" fill="white"/>
</svg>
