<svg width="40" height="40" viewBox="0 0 40 40" fill="none" xmlns="http://www.w3.org/2000/svg">
<path d="M19.5 20C24.1869 20 28 16.4112 28 12C28 7.58882 24.1869 4 19.5 4C14.8131 4 11 7.58882 11 12C11 16.4112 14.8131 20 19.5 20ZM19.5 5.08206C23.5546 5.08206 26.8503 8.18395 26.8503 12C26.8503 15.8161 23.5546 18.9179 19.5 18.9179C15.4454 18.9179 12.1497 15.8161 12.1497 12C12.1497 8.18395 15.4454 5.08206 19.5 5.08206Z" fill="white"/>
<path d="M8.33606 36H30.6606C31.3463 36 31.996 35.7057 32.4447 35.1881C32.8827 34.6812 33.0765 34.0147 32.9724 33.3624C31.9242 26.7789 26.2596 22 19.5001 22C12.7407 22 7.07606 26.7789 6.02786 33.3624C5.92375 34.0147 6.11401 34.6812 6.55555 35.1881C7.00067 35.7057 7.65042 36 8.33965 36H8.33606ZM7.09042 33.529C8.05606 27.4667 13.2719 23.0636 19.5001 23.0636C25.7283 23.0636 30.9442 27.4632 31.9099 33.529C31.9673 33.88 31.8668 34.2239 31.6299 34.4968C31.3894 34.7769 31.0376 34.9364 30.6642 34.9364H8.33606C7.96631 34.9364 7.61452 34.7769 7.37042 34.4968C7.13349 34.2239 7.03298 33.88 7.09042 33.529Z" fill="white"/>
</svg>
